<?xml version="1.0" encoding="UTF-8"?>
<svg xmlns="http://www.w3.org/2000/svg" version="1.1" xmlns:xlink="http://www.w3.org/1999/xlink" viewBox="0 0 1080 1080">
  <defs>
    <style>
      .cls-1 {
        fill: url(#linear-gradient-2);
      }

      .cls-2 {
        fill: #fff;
      }

      .cls-3 {
        font-size: 109.76px;
      }

      .cls-3, .cls-4 {
        font-family: FONTSPRINGDEMO-PaloSemiboldRegular, 'FONTSPRING DEMO - Palo Semibold';
      }

      .cls-5, .cls-4 {
        fill: #118743;
      }

      .cls-6 {
        fill: url(#linear-gradient-3);
      }

      .cls-7 {
        fill: #ef8422;
      }

      .cls-4 {
        font-size: 80.6px;
      }

      .cls-8 {
        fill: url(#linear-gradient);
      }

      .cls-9 {
        fill: #46a549;
      }
    </style>
    <linearGradient id="linear-gradient" x1="-427.53" y1="78.67" x2="-182.26" y2="293.74" gradientTransform="translate(71.65 182.15) rotate(8.97) scale(1.02 1.05) skewX(2.67)" gradientUnits="userSpaceOnUse">
      <stop offset="0" stop-color="#e4aa66"/>
      <stop offset=".2" stop-color="#e4a864"/>
      <stop offset=".27" stop-color="#e5a55d"/>
      <stop offset=".32" stop-color="#e79e51"/>
      <stop offset=".36" stop-color="#e99540"/>
      <stop offset=".39" stop-color="#ec892a"/>
      <stop offset=".4" stop-color="#ee8522"/>
    </linearGradient>
    <linearGradient id="linear-gradient-2" x1="379.76" y1="390.53" x2="728.7" y2="390.53" gradientTransform="translate(168.44 -134.32) rotate(22.27) skewX(1.85)" xlink:href="#linear-gradient"/>
    <linearGradient id="linear-gradient-3" x1="343.88" y1="170.17" x2="687.18" y2="471.2" gradientTransform="translate(32.93 131.58) rotate(5.35) scale(.98) skewX(-.31)" gradientUnits="userSpaceOnUse">
      <stop offset="0" stop-color="#36a348"/>
      <stop offset=".19" stop-color="#34a147"/>
      <stop offset=".26" stop-color="#309a45"/>
      <stop offset=".31" stop-color="#298e41"/>
      <stop offset=".35" stop-color="#1e7d3c"/>
      <stop offset=".39" stop-color="#116735"/>
      <stop offset=".4" stop-color="#095b31"/>
    </linearGradient>
  </defs>
  <!-- Generator: Adobe Illustrator 28.6.0, SVG Export Plug-In . SVG Version: 1.2.0 Build 709)  -->
  <g>
    <g id="Layer_1">
      <path class="cls-8" d="M-197.62,451.57c-36.61,5.13-87.68.92-119.11-20.6-56.69-38.82-82.99-125.43-61.12-191.74,21.91-66.43,105.36-105.67,175.96-94.07-80.3-33.9-181.06.47-217.21,95.38-35.61,93.51,12.53,202.79,108.07,237.34,89.94,32.52,174.1-16.22,204.62-83.52-23.54,28.78-54.7,52.09-91.21,57.21Z"/>
      <g>
        <path class="cls-1" d="M638.43,589.57c-74.51,32.41-189.59-6.03-226.69-90.74-37.1-84.71,10.87-182.88,92.89-218.81,23.63-10.35,48.48-14.42,72.75-12.97-32.82-6.23-67.51-3.04-100.06,11.22-88.17,38.62-127.31,143.74-87.43,234.81,39.89,91.06,145.83,138.13,231.86,94.96,31.97-16.04,58.42-37.6,76.09-65.94-15.39,18.84-36.34,37.43-59.4,47.47Z"/>
        <path class="cls-6" d="M588.07,635.05c-49.04,9.41-95.2,1.1-137.87-24.16-76.97-45.57-112.98-138.85-85.05-225.81,27.98-87.12,113.86-145.73,208.91-136.24-108.56-37.42-243.11,14.53-289.59,139.38-45.79,122.99,21.22,259.84,150.28,296.92,121.47,34.9,233.44-34.26,272.95-123.16-30.98,38.82-70.7,63.68-119.62,73.07Z"/>
        <g>
          <rect class="cls-9" x="410.34" y="387.58" width="11.3" height="33.07" transform="translate(-.75 .77) rotate(-.11)"/>
          <path class="cls-9" d="M429.43,420.63v-3.63c-.02-7.13-6.03-12.9-13.44-12.88-7.41.01-13.4,5.8-13.38,12.93v3.63s26.82-.05,26.82-.05Z"/>
        </g>
        <g>
          <polygon class="cls-5" points="659.2 470.12 659.32 536.28 648.01 532.34 647.9 470.14 659.2 470.12"/>
          <polygon class="cls-5" points="637.48 449.28 659.2 470.12 659.23 485.51 621.5 449.31 637.48 449.28"/>
        </g>
        <g>
          <polygon class="cls-5" points="508.55 470.38 508.67 536.54 519.97 532.56 519.85 470.36 508.55 470.38"/>
          <polygon class="cls-5" points="530.2 449.46 508.55 470.38 508.58 485.77 546.17 449.44 530.2 449.46"/>
        </g>
        <g>
          <g>
            <polygon class="cls-5" points="807.79 392.34 819.1 403.21 764.7 403.3 753.38 392.44 807.79 392.34"/>
            <polygon class="cls-5" points="695.2 392.54 683.93 403.44 738.33 403.34 749.61 392.44 695.2 392.54"/>
          </g>
          <g>
            <rect class="cls-5" x="745.87" y="387" width="11.3" height="33.07" transform="translate(-.75 1.39) rotate(-.11)"/>
            <path class="cls-5" d="M764.95,420.05v-3.63c-.02-7.13-6.03-12.9-13.44-12.88s-13.4,5.8-13.38,12.93v3.63s26.82-.05,26.82-.05Z"/>
          </g>
        </g>
        <polygon class="cls-2" points="473.95 392.23 485.88 403.67 428.55 403.77 416.62 392.32 473.95 392.23"/>
        <polygon class="cls-2" points="357.66 392.54 345.18 404.6 405.36 404.49 417.84 392.44 357.66 392.54"/>
        <rect class="cls-5" x="578.26" y="482.01" width="11.3" height="14.51" transform="translate(-.91 1.08) rotate(-.11)"/>
        <path class="cls-5" d="M596.56,492.88l-25.28.04c-3.43,0-6.2,2.68-6.2,5.96l.05,24.34c0,3.31,2.78,5.97,6.22,5.97l25.28-.04c3.4,0,6.17-2.68,6.17-5.99l-.05-24.34c0-3.28-2.78-5.94-6.19-5.94ZM583.97,524.15c-7.5.01-13.63-5.87-13.64-13.09-.01-7.25,6.09-13.15,13.59-13.17,7.53-.01,13.66,5.87,13.67,13.12s-6.09,13.12-13.62,13.14Z"/>
        <path class="cls-5" d="M583.93,503.14c4.51,0,8.18,3.52,8.19,7.86s-3.65,7.88-8.16,7.89c-4.51,0-8.18-3.52-8.19-7.86s3.65-7.88,8.16-7.89"/>
        <polygon class="cls-9" points="764.95 416.42 764.99 438.18 583.87 467.51 402.64 438.81 402.6 417.05 583.75 405.86 764.95 416.42"/>
        <path class="cls-5" d="M557.09,485.68l53.63-.09c5.99-.01,10.84-4.69,10.83-10.46l-.05-25.82-75.32.13.05,25.82c.01,5.77,4.88,10.43,10.87,10.42Z"/>
        <polygon class="cls-5" points="764.99 438.18 583.87 467.51 402.64 438.81 764.99 438.18"/>
        <g>
          <path class="cls-5" d="M552.66,309.81c0,4.44,1.94,9.33,5.26,14.46-1.19,1.19-2.57,2.32-4.26,3.51.31,8.08.75,18.03.75,26.1,0,4.26,0,9.52-3.07,18.4-1.94,3.13-4.38,5.26-7.14,7.01-4.01,2.63-8.95,3.94-13.08,3.94-5.45,0-9.95-1.88-13.02-5.38-2.88-3.32-4.44-8.08-4.44-14.15,0-5.26,1.69-10.52,4.19-15.78l2.25.88c-1.57,3.57-2.63,7.26-2.63,10.89s1,6.89,3.19,9.7c2.57,3.38,6.39,5.07,10.83,5.07,4.19,0,7.76-1.19,10.83-3,3.13-1.63,5.57-3.57,6.82-5.88.13-1.31.19-2.63.19-3.88,0-9.45-.63-21.03-1.63-34.99-.19-2.57-.56-5.45-.56-8.2,0-1.82.19-3.51,1.31-4.95.88-1.31,2.19-2.63,3.76-3.94l.44.19Z"/>
          <path class="cls-5" d="M604.68,309.5c.38,12.21.63,24.48.63,36.68,0,5.51.13,10.33,1.63,13.96,1.25,3,4.19,5.76,7.57,5.76h.5v8.01h-1.19c-5.82,0-12.96-5.26-12.96-17.28l-.44-.06c-2.44,9.01-7.83,13.46-13.65,16.15-4.51,1.75-7.76,2.5-12.77,2.5l-6.82-.63-.25-.44c10.14-3.82,17.84-7.76,23.85-11.71-1.06-6.2-7.07-16.09-18.03-30.61-3.19-4.32-6.51-8.08-6.51-10.27,0-1.57,1-4.07,1.69-5.76h.31c3.26,3.32,7.64,6.2,11.83,8.89l-2.13,3.69c3.32,4.57,6.64,9.39,10.02,15.15,2.57,4.44,4.95,9.39,4.95,13.4,0,1.38-.13,2.57-.25,3.94l.19.06c1.88-1.82,3.32-3.57,4.51-5.38,2.5-4.01,2.5-8.39,2.5-19.16,0-7.2-.5-14.46-.81-21.79,1.69-2.07,3.13-3.76,5.13-5.32l.5.19Z"/>
          <path class="cls-5" d="M618.82,365.9c10.14,0,20.53-3.57,33.43-11.33l.06-.25c-7.26-2.69-13.9-4.38-19.66-4.38-3.57,0-6.2,1.13-7.95,3.13l.75,3.13-1.88,5.63h-.63l-3.07-8.26c.5-6.95,6.07-11.27,13.58-11.27,4.19,0,10.77,1.5,20.53,5.45,3,1.19,6.76,1.94,10.7,2l5.07-.06.19.13-3.32,6.57c-5.26-.13-8.76,1-10.83,2.32l-10.45,6.82c-8.39,5.45-17.34,8.39-27.11,8.39h-3.26c-3.44,0-4.38-2.5-4.38-4.19,0-1.5,1-3.82,4.38-3.82h3.82Z"/>
        </g>
        <polygon class="cls-5" points="360.87 393.29 350.22 403.59 401.61 403.5 412.26 393.21 360.87 393.29"/>
        <polygon class="cls-5" points="471.61 392.87 482.19 403.03 431.31 403.12 420.72 392.96 471.61 392.87"/>
        <g>
          <text class="cls-3" transform="translate(129.69 820.9)"><tspan class="cls-7" x="0" y="0">Go</tspan><tspan class="cls-5" x="135.78" y="0">Halal</tspan><tspan class="cls-7" x="406.89" y="0">Food</tspan></text>
          <text class="cls-4" transform="translate(777.83 820.78)"><tspan x="0" y="0">.com</tspan></text>
        </g>
      </g>
    </g>
  </g>
</svg>